HIERARCHY
ROOT hip
{
  OFFSET 0 0 0
  CHANNELS 6 Xposition Yposition Zposition Zrotation Yrotation Xrotation
  JOINT abdomen
  {
    OFFSET 0 20.6881 -0.73152
    CHANNELS 3 Zrotation Xrotation Yrotation
    JOINT chest
    {
      OFFSET 0 11.7043 -0.48768
      CHANNELS 3 Zrotation Xrotation Yrotation
      JOINT neck
      {
        OFFSET 0 22.1894 -2.19456
        CHANNELS 3 Zrotation Xrotation Yrotation
        JOINT head
        {
          OFFSET -0.24384 7.07133 1.2192
          CHANNELS 3 Zrotation Xrotation Yrotation
          JOINT leftEye
          {
            OFFSET 4.14528 8.04674 8.04672
            CHANNELS 3 Zrotation Xrotation Yrotation
            End Site
            {
              OFFSET 1 0 0
            }
          }
          JOINT rightEye
          {
            OFFSET -3.6576 8.04674 8.04672
            CHANNELS 3 Zrotation Xrotation Yrotation
            End Site
            {
              OFFSET 1 0 0
            }
          }
        }
      }
      JOINT rCollar
      {
        OFFSET -2.68224 19.2634 -4.8768
        CHANNELS 3 Zrotation Xrotation Yrotation
        JOINT rShldr
        {
          OFFSET -8.77824 -1.95073 1.46304
          CHANNELS 3 Zrotation Xrotation Yrotation
          JOINT rForeArm
          {
            OFFSET -28.1742 -1.7115 0.48768
            CHANNELS 3 Zrotation Xrotation Yrotation
            JOINT rHand
            {
              OFFSET -22.5879 0.773209 7.07136
              CHANNELS 3 Zrotation Xrotation Yrotation
              JOINT rThumb1
              {
                OFFSET -1.2192 -0.487915 3.41376
                CHANNELS 3 Zrotation Xrotation Yrotation
                JOINT rThumb2
                {
                  OFFSET -3.37035 -0.52449 3.41376
                  CHANNELS 3 Zrotation Xrotation Yrotation
                  End Site
                  {
                    OFFSET -1.78271 -1.18214 1.43049
                  }
                }
              }
              JOINT rIndex1
              {
                OFFSET -7.75947 0.938293 5.60832
                CHANNELS 3 Zrotation Xrotation Yrotation
                JOINT rIndex2
                {
                  OFFSET -2.54057 -0.884171 1.56538
                  CHANNELS 3 Zrotation Xrotation Yrotation
                  End Site
                  {
                    OFFSET -1.62519 -0.234802 1.16502
                  }
                }
              }
              JOINT rMid1
              {
                OFFSET -8.24714 1.18213 3.41376
                CHANNELS 3 Zrotation Xrotation Yrotation
                JOINT rMid2
                {
                  OFFSET -3.10165 -0.590103 1.0647
                  CHANNELS 3 Zrotation Xrotation Yrotation
                  End Site
                  {
                    OFFSET -2.48547 -0.328903 0.83742
                  }
                }
              }
              JOINT rRing1
              {
                OFFSET -8.82822 0.546677 1.51678
                CHANNELS 3 Zrotation Xrotation Yrotation
                JOINT rRing2
                {
                  OFFSET -2.60934 -0.819778 -0.0198488
                  CHANNELS 3 Zrotation Xrotation Yrotation
                  End Site
                  {
                    OFFSET -2.33842 -0.294052 0.168128
                  }
                }
              }
              JOINT rPinky1
              {
                OFFSET -8.27202 -0.0477905 -0.4584
                CHANNELS 3 Zrotation Xrotation Yrotation
                JOINT rPinky2
                {
                  OFFSET -1.82734 -0.647385 -0.700984
                  CHANNELS 3 Zrotation Xrotation Yrotation
                  End Site
                  {
                    OFFSET -1.69225 -0.51767 -0.607171
                  }
                }
              }
            }
          }
        }
      }
      JOINT lCollar
      {
        OFFSET 2.68224 19.2634 -4.8768
        CHANNELS 3 Zrotation Xrotation Yrotation
        JOINT lShldr
        {
          OFFSET 8.77824 -1.95073 1.46304
          CHANNELS 3 Zrotation Xrotation Yrotation
          JOINT lForeArm
          {
            OFFSET 28.1742 -1.7115 0.48768
            CHANNELS 3 Zrotation Xrotation Yrotation
            JOINT lHand
            {
              OFFSET 22.5879 0.773209 7.07136
              CHANNELS 3 Zrotation Xrotation Yrotation
              JOINT lThumb1
              {
                OFFSET 1.2192 -0.487915 3.41376
                CHANNELS 3 Zrotation Xrotation Yrotation
                JOINT lThumb2
                {
                  OFFSET 3.37035 -0.52449 3.41376
                  CHANNELS 3 Zrotation Xrotation Yrotation
                  End Site
                  {
                    OFFSET 1.78271 -1.18214 1.43049
                  }
                }
              }
              JOINT lIndex1
              {
                OFFSET 7.75947 0.938293 5.60832
                CHANNELS 3 Zrotation Xrotation Yrotation
                JOINT lIndex2
                {
                  OFFSET 2.54057 -0.884171 1.56538
                  CHANNELS 3 Zrotation Xrotation Yrotation
                  End Site
                  {
                    OFFSET 1.62519 -0.234802 1.16502
                  }
                }
              }
              JOINT lMid1
              {
                OFFSET 8.24714 1.18213 3.41376
                CHANNELS 3 Zrotation Xrotation Yrotation
                JOINT lMid2
                {
                  OFFSET 3.10165 -0.590103 1.0647
                  CHANNELS 3 Zrotation Xrotation Yrotation
                  End Site
                  {
                    OFFSET 2.48547 -0.328903 0.83742
                  }
                }
              }
              JOINT lRing1
              {
                OFFSET 8.82822 0.546677 1.51678
                CHANNELS 3 Zrotation Xrotation Yrotation
                JOINT lRing2
                {
                  OFFSET 2.60934 -0.819778 -0.0198488
                  CHANNELS 3 Zrotation Xrotation Yrotation
                  End Site
                  {
                    OFFSET 2.33842 -0.294052 0.168128
                  }
                }
              }
              JOINT lPinky1
              {
                OFFSET 8.27202 -0.0477905 -0.4584
                CHANNELS 3 Zrotation Xrotation Yrotation
                JOINT lPinky2
                {
                  OFFSET 1.82734 -0.647385 -0.700984
                  CHANNELS 3 Zrotation Xrotation Yrotation
                  End Site
                  {
                    OFFSET 1.69225 -0.51767 -0.607171
                  }
                }
              }
            }
          }
        }
      }
    }
  }
  JOINT rButtock
  {
    OFFSET -8.77824 4.35084 1.2192
    CHANNELS 3 Zrotation Xrotation Yrotation
    JOINT rThigh
    {
      OFFSET 0 -1.70687 -2.19456
      CHANNELS 3 Zrotation Xrotation Yrotation
      JOINT rShin
      {
        OFFSET 0 -36.8199 0.73152
        CHANNELS 3 Zrotation Xrotation Yrotation
        JOINT rFoot
        {
          OFFSET 0.73152 -45.1104 -5.12064
          CHANNELS 3 Zrotation Xrotation Yrotation
          End Site
          {
            OFFSET -1.1221 -3.69964 12.103
          }
        }
      }
    }
  }
  JOINT lButtock
  {
    OFFSET 8.77824 4.35084 1.2192
    CHANNELS 3 Zrotation Xrotation Yrotation
    JOINT lThigh
    {
      OFFSET 0 -1.70687 -2.19456
      CHANNELS 3 Zrotation Xrotation Yrotation
      JOINT lShin
      {
        OFFSET 0 -36.8199 0.73152
        CHANNELS 3 Zrotation Xrotation Yrotation
        JOINT lFoot
        {
          OFFSET -0.73152 -45.1104 -5.12064
          CHANNELS 3 Zrotation Xrotation Yrotation
          End Site
          {
            OFFSET 1.1221 -3.69964 12.103
          }
        }
      }
    }
  }
}
MOTION
Frames:	4
Frame Time:	0.00833333
268.273 79.7695 70.7279 896.329 20.9964 906.344 -12.1059 7.66959 13.5445 -1.19498 3.56732 4.24304 8.74603 -3.93093 3.87323 -15.427 4.41607 6.8098 -0.0 0.0 0.0 -0.0 0.0 0.0 -4.88379e-15 1.97197e-13 1.20265e-14 56.7445 33.8296 26.2009 -20.2253 -13.2977 39.2295 -0.0106061 -2.93909 -0.413428 -2.22852e-10 -3.00919e-10 1.22239e-09 -3.93306e-10 -5.0913e-10 2.11572e-09 -2.22841e-10 -3.00948e-10 1.22239e-09 7.73091 5.47488 0.417314 -2.22853e-10 -3.0092e-10 1.22239e-09 2.90554 0.965183 0.102902 -2.22846e-10 -3.00919e-10 1.22239e-09 10.2786 0.731801 0.0259123 -2.22856e-10 -3.00915e-10 1.2224e-09 2.22167 -0.733487 -0.20892 -4.85695e-15 1.97192e-13 1.18277e-14 -76.8341 2.83698 0.694383 6.63951 -2.33641 -11.6333 0.728025 23.4863 -3.50117 -1.35052e-09 3.95976e-10 4.24433e-09 -2.25522e-09 6.69682e-10 7.35554e-09 -1.35052e-09 3.95977e-10 4.24433e-09 -7.73091 5.47488 -0.417314 -1.35051e-09 3.95977e-10 4.24432e-09 -2.90554 0.965183 -0.102902 -1.35052e-09 3.95975e-10 4.24433e-09 -10.2786 0.731801 -0.0259123 -1.35051e-09 3.95981e-10 4.24432e-09 -2.22167 -0.733487 0.20892 -2.03217e-16 0.0 -3.88251e-19 -5.31547 10.5158 -8.59109 0.0976046 19.1711 1.00564 -8.97993 -23.3125 -21.195 2.03217e-16 0.0 3.88251e-19 18.7461 -31.954 10.9331 0.193157 31.8207 -0.793099 1.48425 -4.817 5.18105
271.93 79.3428 70.4751 910.273 20.247 907.988 -8.89302 8.12222 13.5114 -2.37048 3.7603 4.30944 8.81978 -3.87254 3.9231 -15.4845 4.35912 6.89076 -0.0 0.0 0.0 -0.0 0.0 0.0 5.08641e-14 1.67781e-13 6.45542e-14 57.3064 34.6766 25.9927 -20.2551 -13.3348 39.3062 -0.0102809 -2.84864 -0.400704 -4.31562e-10 3.57319e-10 7.79467e-10 -7.50522e-10 6.25021e-10 1.34822e-09 -4.31551e-10 3.57291e-10 7.79466e-10 7.73091 5.47488 0.417314 -4.31563e-10 3.57316e-10 7.79466e-10 2.90554 0.965183 0.102902 -4.31558e-10 3.57317e-10 7.7947e-10 10.2786 0.731801 0.0259123 -4.31567e-10 3.57321e-10 7.79474e-10 2.22167 -0.733487 -0.20892 5.08782e-14 1.67768e-13 6.43429e-14 -76.5702 0.595498 0.988004 6.34629 -2.19597 -11.1118 0.853709 25.1031 -3.77971 -1.17439e-09 4.13096e-10 2.76363e-09 -1.98275e-09 7.06721e-10 4.79415e-09 -1.17439e-09 4.13098e-10 2.76363e-09 -7.73091 5.47488 -0.417314 -1.17439e-09 4.13098e-10 2.76363e-09 -2.90554 0.965183 -0.102902 -1.17439e-09 4.13096e-10 2.76363e-09 -10.2786 0.731801 -0.0259123 -1.17439e-09 4.131e-10 2.76363e-09 -2.22167 -0.733487 0.20892 -2.03217e-16 0.0 -3.88251e-19 -2.26818 11.1839 -8.57153 0.100174 19.6521 1.0182 -8.72293 -22.6386 -20.8664 2.03217e-16 0.0 3.88251e-19 18.7128 -31.9992 10.9305 0.194609 31.8803 -0.78244 1.47812 -4.82974 5.18192
272.055 79.3676 69.6961 910.499 20.0669 908.884 -3.86223 8.66237 13.488 -4.07819 4.045 4.40782 8.93412 -3.71776 3.95731 -15.5555 4.32041 6.95996 -0.0 0.0 0.0 -0.0 0.0 0.0 1.41229e-13 1.02586e-13 7.78149e-14 57.9915 35.4896 25.6711 -20.2397 -13.3149 39.2697 -0.0106703 -2.8895 -0.406468 -5.5461e-10 1.00434e-09 4.54203e-11 -9.5744e-10 1.73681e-09 7.68505e-11 -5.546e-10 1.00432e-09 4.54187e-11 7.73091 5.47488 0.417314 -5.5461e-10 1.00434e-09 4.54208e-11 2.90554 0.965183 0.102902 -5.54608e-10 1.00434e-09 4.54236e-11 10.2786 0.731801 0.0259123 -5.54616e-10 1.00434e-09 4.54264e-11 2.22167 -0.733487 -0.20892 1.41235e-13 1.0256e-13 7.7585e-14 -76.2387 -1.07351 1.31409 6.14384 -2.10442 -10.7482 0.931414 26.152 -3.96119 -6.12072e-10 5.28552e-10 -9.86191e-11 -1.06908e-09 9.19185e-10 -1.59607e-10 -6.1207e-10 5.28554e-10 -9.86125e-11 -7.73091 5.47488 -0.417314 -6.12068e-10 5.28554e-10 -9.862e-11 -2.90554 0.965183 -0.102902 -6.12072e-10 5.28553e-10 -9.86184e-11 -10.2786 0.731801 -0.0259123 -6.1207e-10 5.28555e-10 -9.86216e-11 -2.22167 -0.733487 0.20892 -2.03217e-16 0.0 -3.88251e-19 2.40196 11.8996 -8.65886 0.102465 20.2174 1.03034 -8.40922 -21.7402 -20.4592 2.03217e-16 0.0 3.88251e-19 18.6744 -32.057 10.9281 0.196593 31.9571 -0.76767 1.46944 -4.84613 5.1831
272.178 79.3674 68.834 910.424 19.8773 909.055 1.11076 9.24195 13.4566 -5.75572 4.30622 4.49964 9.03904 -3.55041 3.98047 -15.6489 4.32579 7.0303 -0.0 0.0 0.0 -0.0 0.0 0.0 2.16563e-13 2.90409e-14 6.58346e-14 58.6981 36.2958 25.315 -20.1909 -13.2528 39.1485 -0.01158 -3.0311 -0.426416 -4.8091e-10 1.32029e-09 -6.65457e-10 -8.24312e-10 2.27573e-09 -1.15387e-09 -4.809e-10 1.32028e-09 -6.65461e-10 7.73091 5.47488 0.417314 -4.8091e-10 1.32029e-09 -6.65455e-10 2.90554 0.965183 0.102902 -4.80911e-10 1.32029e-09 -6.65454e-10 10.2786 0.731801 0.0259123 -4.80918e-10 1.32029e-09 -6.65451e-10 2.22167 -0.733487 -0.20892 2.16564e-13 2.90041e-14 6.55892e-14 -75.9263 -2.48771 1.63913 6.00384 -2.04433 -10.4942 0.982881 26.9069 -4.0913 1.83156e-10 5.8942e-10 -3.01598e-09 2.46563e-10 1.03791e-09 -5.21346e-09 1.83157e-10 5.89422e-10 -3.01597e-09 -7.73091 5.47488 -0.417314 1.8316e-10 5.89423e-10 -3.01598e-09 -2.90554 0.965183 -0.102902 1.83157e-10 5.89423e-10 -3.01598e-09 -10.2786 0.731801 -0.0259123 1.83156e-10 5.89423e-10 -3.01598e-09 -2.22167 -0.733487 0.20892 -2.03217e-16 0.0 -3.88251e-19 7.00835 12.6006 -8.68151 0.102648 20.8869 1.04314 -8.07661 -20.7705 -20.0326 2.03217e-16 0.0 3.88251e-19 18.634 -32.1187 10.9256 0.198699 32.0372 -0.751772 1.46049 -4.86181 5.18427
